<?xml version="1.0" encoding="UTF-8"?>
<svg id="Layer_2" data-name="Layer 2" xmlns="http://www.w3.org/2000/svg" viewBox="0 0 400 400">
  <defs>
    <style>
      .cls-1 {
        fill: #7e01ff;
      }

      .cls-1, .cls-2, .cls-3 {
        stroke-width: 0px;
      }

      .cls-2 {
        fill: none;
      }

      .cls-3 {
        fill: #fff;
      }
    </style>
  </defs>
  <g id="Icon_Name" data-name="Icon Name">
    <g>
      <g>
        <path class="cls-1" d="M232.16,53.73l81.8,83.3c2.27,2.31,3.54,5.42,3.54,8.65v191.94c0,6.84-5.57,12.38-12.44,12.38H94.94c-6.87,0-12.44-5.54-12.44-12.38V62.38c0-6.84,5.57-12.38,12.44-12.38h128.33c3.35,0,6.55,1.34,8.89,3.73Z"/>
        <g>
          <path class="cls-1" d="M228.5,66.38v70.54c0,1.92,1.45,3.48,3.24,3.48h68.08"/>
          <path class="cls-3" d="M228.98,66.38c6.42,22.99,7.94,46.26,8.13,69.74,0,0,0,.55,0,.55v.23c0-.48-.1-.94-.3-1.42-.47-1.67-3.22-3.25-4.98-3.09.34-.02,2.51.05,2.91.04,21.98.64,43.54,2.21,65.09,7.52.28.03.54.29.45.57-.06.19-.24.32-.45.33-9.29.13-27.91.29-37.19.3-7.47-.02-22.91.13-30.22.12-3.17.35-5.19-2.46-4.86-5.14.05-11.52.19-41.16.24-52.31,0,0,.23-17.44.23-17.44,0-.24.22-.44.48-.44.27.01.44.2.48.44h0Z"/>
        </g>
      </g>
      <rect class="cls-2" width="400" height="400"/>
    </g>
  </g>
</svg>